<?xml version="1.0" encoding="UTF-8"?>
<!DOCTYPE svg PUBLIC "-//W3C//DTD SVG 1.1//EN" "http://www.w3.org/Graphics/SVG/1.1/DTD/svg11.dtd">
<!-- Creator: CorelDRAW 2018 (64-Bit) -->
<svg xmlns="http://www.w3.org/2000/svg" xml:space="preserve" width="210mm" height="297mm" version="1.1" style="shape-rendering:geometricPrecision; text-rendering:geometricPrecision; image-rendering:optimizeQuality; fill-rule:evenodd; clip-rule:evenodd"
viewBox="0 0 21000 29700"
 xmlns:xlink="http://www.w3.org/1999/xlink">
 <defs>
  <style type="text/css">
   <![CDATA[
    .fil0 {fill:#C5486B}
    .fil3 {fill:#CD607F}
    .fil2 {fill:#F6DFE5}
    .fil1 {fill:#FEFDFE}
   ]]>
  </style>
   <clipPath id="id0">
    <rect x="8190.53" y="11873.11" width="7070.26" height="7070.26"/>
   </clipPath>
 </defs>
 <g id="Слой_x0020_1">
  <metadata id="CorelCorpID_0Corel-Layer"/>
  <g style="clip-path:url(#id0)">
   <image x="8190.53" y="11873.11" width="7070.26" height="7070.26" xlink:href="Безымянный-1_Images\Безымянный-1_ImgID1.png"/>
  </g>
  <g id="_378749168048">
   <path class="fil0" d="M9756.99 16193.04c103.56,216.79 -430.12,359.88 -467.92,-2.16 -26.25,-251.44 177.31,-379.31 359.26,-340.33 94.17,20.18 95.8,61.85 96.04,156.76 -88.75,-4.54 -253.12,-166.19 -317.82,44.22 -50.86,165.39 15.44,278.67 182.27,257.59 107.78,-84.49 20.61,-117.54 148.17,-116.08zm4401.7 167.78c-126.87,98.69 -352.5,34.45 -466.02,-17.54 26.89,-162.55 108.82,-129.47 44.72,-514.35 196.39,-12.85 297.74,36.12 426.27,121.66 15.11,138.2 -22.86,142.94 -20.38,218.33 2.73,83.14 45.04,55.5 15.41,191.9zm-461.42 -554.55c-66.87,153.53 -60.44,153.06 -93.53,341.31 -45.43,258.51 -429.48,178.31 -456.7,-42.56 -21.91,-177.75 40.76,-22.41 -29.74,-382.91 453.82,-22.4 21.57,132.75 188.27,459.6l142.01 13.63c93.22,-195.12 36.52,-244.59 14.47,-436.1l235.22 47.03zm-3563.65 -46.36c105.85,-35.44 96.62,-54.07 230.94,-47.71 3.19,99.62 -57.43,120.87 -35.34,285.97 12.95,96.71 54.44,167.17 76.52,252.57l-231.73 13.11c15.57,-66.4 36.45,-108.82 36.93,-196.32l-212.74 24.31c-3.54,167.97 179.31,226.39 -151.16,240.28 52.59,-570.66 -35.06,-349.9 -58.32,-528.71l232.74 -29.1 -28.21 201.76c23.22,-0.62 107.86,-0.09 128.59,-5.16 138.6,-33.9 50.51,-117.16 11.78,-211zm297.06 -34.14c96.38,-69.5 310.17,-80.29 448.03,-63.03l-1.86 128.63c-139.8,14.17 -120.44,-89.17 -267.71,-16.9l-3.63 81.6 190.77 60.21c-72.77,132.41 -165.71,-35.72 -171.46,193.99 209.83,24.83 115.2,-53.81 249.41,-61.32l15.86 138.17 -429.31 43.2c-1.01,-88.86 36.16,-169.28 35.25,-272.09 -0.99,-112.53 -43.03,-154.82 -65.35,-232.46zm2643.05 503.39c-111.45,14.73 -314.45,-20.58 -417.13,-39.59 7.08,-107.39 54.02,-71.15 59.54,-251.18 5.21,-169.96 -29,-173.57 -37.12,-285.23l224.98 39.03c-5.84,62.79 -112.24,144.52 -64.1,422.15 146.13,41.5 123.08,-29.1 233.44,-18.78l0.39 133.6zm-586.01 -492.99c-335.84,-55.08 -279.59,354.48 -83.88,351.46 143.59,-2.22 43.04,-27.63 125.17,-68.6 120.23,-59.97 143.87,215.87 -186,155.55 -210.26,-38.45 -296.58,-316.98 -152.18,-469.38 150.05,-158.37 506.71,-73.62 402.74,121.44 -111.32,-2.69 -57.63,2.48 -105.85,-90.47zm-1531.27 105.14c-2.39,-153.84 54.35,-208.6 198.1,-220.49 168.17,-13.91 231.22,2.11 232.18,166.62 -170.44,12.71 -29.1,-41.43 -172.95,-67.63 -49.23,-8.97 -62.72,-5.69 -92.81,15.08 -102.3,70.62 114.18,99.69 275.55,212.5 11.46,173.51 -46.87,227.02 -221.21,230.27 -146.17,2.73 -241.44,-37.96 -188.42,-174.44 141.01,6.55 46.77,48.88 152.06,77.29 73.59,19.86 157.87,-10.99 111.33,-85.74 -35.17,-56.46 -129.41,-36.3 -293.83,-153.46zm774.74 208.22c50.05,-87.06 11.6,-56.43 9.47,-63.44 -6.28,-20.66 -29.37,-35.77 -41.17,-42.65 -25.91,-15.11 -90.16,-29.02 -128.49,-44.95 -79.51,-33.06 -154.18,-98.02 -103.39,-196.31 70.81,-137.06 511.08,-142.12 385.06,74.43 -118.84,-19.06 -142.09,-156.57 -258.63,-29.67 16.3,81.01 -3.12,51.8 92.65,82.67 576.94,185.98 -211.74,586.08 -220.7,147.62 155.58,11 166.74,173.91 265.2,72.3zm-2849.11 -50.28c50.41,71.82 77.04,340.71 85.84,424.92 8.56,81.96 45.11,365.27 90.52,435.01l955.62 -216.97 1076.37 -131.51c813.11,-56.7 1527.74,-10.28 2323.64,131.08 305.62,54.27 882.89,219.26 1025.78,230.72 35.07,-109.13 196.24,-1126.76 164.72,-1194.25 -63.7,-67.33 -1167.89,-268.36 -1331.18,-292.34 -949.4,-139.43 -2102.05,-161.15 -3051.19,-3.07 -239.54,39.9 -1223.5,216.84 -1357.48,300.59l17.36 315.82z"/>
   <path class="fil0" d="M10282.15 14246.11c-0.54,-105.55 43.86,-139.5 109.97,-214.82l289.26 -343.64c54.29,-63.7 76.46,-134.06 169,-133.4 12.46,120.92 -164.49,301.16 -235.39,384.4 -121.92,143.13 -225.39,299.28 -332.84,307.46zm1245.83 -411.83c69.55,47.68 86.53,255.8 82.08,367.72 -18.21,458.03 -459.2,872.7 -507.04,1000.36 285.35,1.16 569.6,-7.54 855.49,-2.02 251.19,4.84 600.87,46.39 828.22,24.99 32.79,-564.88 172.95,-1200.63 -303.55,-1675.38 -81,-80.7 -329.69,-223.15 -322.2,-353.48 240.87,-39.86 627.36,518.25 699.43,732.56 206.2,613.18 13.59,1086.65 58.28,1331.03l256.14 16.6c224.32,-558.75 47.49,-1460.62 -219.03,-1858.86 -150.31,-224.58 -350.9,-405.09 -576.51,-547.02 -152.2,-95.74 -418.63,-220.04 -613.19,-219.54 -152.09,0.4 -117.18,36.09 -121.12,177.48 -196.3,-35.37 -332.12,-311.09 -558.38,-330.72 -41.62,350.59 47.46,479.75 -1.3,554.8 -18.33,28.21 -123.96,123.01 -156.55,161.83 -48.49,57.77 -81.55,118.46 -131.94,185.97 -106.87,143.16 -166.01,214.94 -282.27,351.61 -162.62,191.19 -600.58,569.46 -156.82,782.49 216.26,103.82 302.85,-96.17 399,-179.55 89.5,-77.62 380.92,-47.36 530.21,-106.13 213.61,-84.09 192.54,-186.04 241.05,-414.74z"/>
   <path class="fil0" d="M15260.79 16166.12l0 -58.87c-175.52,-35.75 -420.04,-166.99 -593.05,-172.96l-152.25 1035.45c-186.85,6.37 -771.62,-234.2 -1116.79,-259.16 -328.68,-23.76 -418.43,218.81 -1047.47,359.84 -682.91,153.11 -1407.66,37.49 -1993.28,-315.55 -127.71,-76.99 -154.96,-32.39 -291.01,-57.19 -73.79,49.12 -199,63.4 -293.67,84.68 -208.93,46.97 -699.49,210.32 -807.23,181.45l-102.44 -666.39 -58.58 -361.63c-100.27,-4.06 -307.72,88.08 -439.69,133.2 -70.76,24.2 -105.45,24.81 -139.22,80.15 37.78,54.87 495.18,376.96 556.08,423.72 -19.27,165.24 -268.31,596.34 -331.55,799.36 47.05,-1.47 1231.28,-375.81 1569.06,-448.02 424.97,-90.85 493.41,7.09 823.19,131.88 524.12,198.33 1242.88,201.73 1768.34,15.75 366.7,-129.78 337.67,-228.8 825.16,-138.84 260.44,48.06 572.58,114.97 834.81,191.74 167.56,49.05 603.01,244.23 768.07,244.67 -26.18,-174.17 -321.79,-626.25 -327.03,-796.9 69.84,-69.71 463.1,-371.72 548.55,-406.38z"/>
   <path class="fil1" d="M10133.62 15759.91c38.73,93.84 126.82,177.1 -11.78,211 -20.73,5.07 -105.37,4.54 -128.59,5.16l28.21 -201.76 -232.74 29.1c23.26,178.81 110.91,-41.95 58.32,528.71 330.47,-13.89 147.62,-72.31 151.16,-240.28l212.74 -24.31c-0.48,87.5 -21.36,129.92 -36.93,196.32l231.73 -13.11c-22.08,-85.4 -63.57,-155.86 -76.52,-252.57 -22.09,-165.1 38.53,-186.35 35.34,-285.97 -134.32,-6.36 -125.09,12.27 -230.94,47.71z"/>
   <path class="fil1" d="M14058.16 16300.99c-141.42,44.15 -216.77,34.74 -182.02,-137.8 104.22,-8.87 177.22,36.26 182.02,137.8zm-153.44 -345.51c107.29,-8.39 173.96,-3.73 140.4,127.48l-157.67 -7.33 17.27 -120.15zm-212.05 387.8c113.52,51.99 339.15,116.23 466.02,17.54 29.63,-136.4 -12.68,-108.76 -15.41,-191.9 -2.48,-75.39 35.49,-80.13 20.38,-218.33 -128.53,-85.54 -229.88,-134.51 -426.27,-121.66 64.1,384.88 -17.83,351.8 -44.72,514.35z"/>
   <path class="fil1" d="M13697.27 15806.27l-235.22 -47.03c22.05,191.51 78.75,240.98 -14.47,436.1l-142.01 -13.63c-166.7,-326.85 265.55,-482 -188.27,-459.6 70.5,360.5 7.83,205.16 29.74,382.91 27.22,220.87 411.27,301.07 456.7,42.56 33.09,-188.25 26.66,-187.78 93.53,-341.31z"/>
   <path class="fil2" d="M8863.6 16297.42l102.44 666.39c107.74,28.87 598.3,-134.48 807.23,-181.45 94.67,-21.28 219.88,-35.56 293.67,-84.68l-94.82 -9.21c82.72,-10.14 43.6,-30.58 41.94,-46.26l-955.62 216.97c-45.41,-69.74 -81.96,-353.05 -90.52,-435.01 -8.8,-84.21 -35.43,-353.1 -85.84,-424.92 -28.48,117.76 13.02,182.93 33.63,298.06 -33.93,24.51 11.05,15.66 -52.11,0.11z"/>
   <path class="fil1" d="M10430.68 15725.77c22.32,77.64 64.36,119.93 65.35,232.46 0.91,102.81 -36.26,183.23 -35.25,272.09l429.31 -43.2 -15.86 -138.17c-134.21,7.51 -39.58,86.15 -249.41,61.32 5.75,-229.71 98.69,-61.58 171.46,-193.99l-190.77 -60.21 3.63 -81.6c147.27,-72.27 127.91,31.07 267.71,16.9l1.86 -128.63c-137.86,-17.26 -351.65,-6.47 -448.03,63.03z"/>
   <path class="fil1" d="M10956.45 15841.31c164.42,117.16 258.66,97 293.83,153.46 46.54,74.75 -37.74,105.6 -111.33,85.74 -105.29,-28.41 -11.05,-70.74 -152.06,-77.29 -53.02,136.48 42.25,177.17 188.42,174.44 174.34,-3.25 232.67,-56.76 221.21,-230.27 -161.37,-112.81 -377.85,-141.88 -275.55,-212.5 30.09,-20.77 43.58,-24.05 92.81,-15.08 143.85,26.2 2.51,80.34 172.95,67.63 -0.96,-164.51 -64.01,-180.53 -232.18,-166.62 -143.75,11.89 -200.49,66.65 -198.1,220.49z"/>
   <path class="fil1" d="M11731.19 16049.53c-98.46,101.61 -109.62,-61.3 -265.2,-72.3 8.96,438.46 797.64,38.36 220.7,-147.62 -95.77,-30.87 -76.35,-1.66 -92.65,-82.67 116.54,-126.9 139.79,10.61 258.63,29.67 126.02,-216.55 -314.25,-211.49 -385.06,-74.43 -50.79,98.29 23.88,163.25 103.39,196.31 38.33,15.93 102.58,29.84 128.49,44.95 11.8,6.88 34.89,21.99 41.17,42.65 2.13,7.01 40.58,-23.62 -9.47,63.44z"/>
   <path class="fil1" d="M12487.72 15736.17c48.22,92.95 -5.47,87.78 105.85,90.47 103.97,-195.06 -252.69,-279.81 -402.74,-121.44 -144.4,152.4 -58.08,430.93 152.18,469.38 329.87,60.32 306.23,-215.52 186,-155.55 -82.13,40.97 18.42,66.38 -125.17,68.6 -195.71,3.02 -251.96,-406.54 83.88,-351.46z"/>
   <path class="fil1" d="M9756.99 16193.04c-127.56,-1.46 -40.39,31.59 -148.17,116.08 -166.83,21.08 -233.13,-92.2 -182.27,-257.59 64.7,-210.41 229.07,-48.76 317.82,-44.22 -0.24,-94.91 -1.87,-136.58 -96.04,-156.76 -181.95,-38.98 -385.51,88.89 -359.26,340.33 37.8,362.04 571.48,218.95 467.92,2.16z"/>
   <path class="fil1" d="M12656.6 16189.57c102.68,19.01 305.68,54.32 417.13,39.59l-0.39 -133.6c-110.36,-10.32 -87.31,60.28 -233.44,18.78 -48.14,-277.63 58.26,-359.36 64.1,-422.15l-224.98 -39.03c8.12,111.66 42.33,115.27 37.12,285.23 -5.52,180.03 -52.46,143.79 -59.54,251.18z"/>
   <path class="fil1" d="M10282.15 14246.11c107.45,-8.18 210.92,-164.33 332.84,-307.46 70.9,-83.24 247.85,-263.48 235.39,-384.4 -92.54,-0.66 -114.71,69.7 -169,133.4l-289.26 343.64c-66.11,75.32 -110.51,109.27 -109.97,214.82z"/>
   <path class="fil3" d="M14058.16 16300.99c-4.8,-101.54 -77.8,-146.67 -182.02,-137.8 -34.75,172.54 40.6,181.95 182.02,137.8z"/>
   <path class="fil3" d="M13887.45 16075.63l157.67 7.33c33.56,-131.21 -33.11,-135.87 -140.4,-127.48l-17.27 120.15z"/>
  </g>
 </g>
</svg>
